<svg width="142" height="142" viewBox="0 0 142 142" fill="none" xmlns="http://www.w3.org/2000/svg">
<path fill-rule="evenodd" clip-rule="evenodd" d="M43.4038 71C28.8348 71 19.7282 78.273 16.0859 92.8191C21.5504 85.5461 27.9248 82.8192 35.2071 84.6364C39.3654 85.673 42.3374 88.6837 45.6242 92.017C50.9816 97.4449 57.1804 103.727 70.7237 103.727C85.2927 103.727 94.3993 96.4557 98.0415 81.9096C92.5771 89.1826 86.2027 91.9095 78.9182 90.0923C74.7621 89.0536 71.7901 86.0429 68.5033 82.7117C63.1459 77.2838 56.9449 71 43.4038 71Z" fill="#D17277" style="fill:#D17277;fill:color(display-p3 0.8196 0.4471 0.4667);fill-opacity:1;"/>
<path d="M43.4037 60.0926C47.0481 45.5465 56.1526 38.2734 70.7237 38.2734C84.2649 38.2734 90.4637 44.5529 95.8211 49.9852C99.1079 53.3163 102.08 56.327 106.238 57.3636C113.523 59.1829 119.897 56.4561 125.359 49.183C121.717 63.727 112.61 71 98.0415 71C84.5004 71 78.2994 64.7183 72.942 59.2904C69.6552 55.9571 66.6832 52.9464 62.5271 51.9099C55.2426 50.0927 48.8682 52.8195 43.4037 60.0926Z" fill="#B78DBA" style="fill:#B78DBA;fill:color(display-p3 0.7176 0.5529 0.7294);fill-opacity:1;"/>
</svg>
